{
  "accessors": [
    {
      "bufferView": 2,
      "componentType": 5126,
      "count": 962,
      "max": [
        4.824562072753906,
        -3.921352131897038e-09,
        4.824554443359375
      ],
      "min": [
        -4.824562072753906,
        -0.4880922734737396,
        -4.824554443359375
      ],
      "type": "VEC3"
    },
    {
      "bufferView": 2,
      "byteOffset": 11544,
      "componentType": 5126,
      "count": 962,
      "max": [
        0.9997919201850891,
        1.0,
        0.9997919201850891
      ],
      "min": [
        -0.9997919201850891,
        -1.0,
        -0.9997919201850891
      ],
      "type": "VEC3"
    },
    {
      "bufferView": 3,
      "componentType": 5126,
      "count": 962,
      "max": [
        0.5095087289810181,
        0.9997915625572205,
        0.9999938011169434,
        1.0
      ],
      "min": [
        -0.5121952891349792,
        -0.9997916221618652,
        -1.0,
        1.0
      ],
      "type": "VEC4"
    },
    {
      "bufferView": 1,
      "componentType": 5126,
      "count": 962,
      "max": [
        0.986840546131134,
        0.987460196018219
      ],
      "min": [
        0.012541206553578377,
        0.012545943260192871
      ],
      "type": "VEC2"
    },
    {
      "bufferView": 1,
      "byteOffset": 7696,
      "componentType": 5126,
      "count": 962,
      "max": [
        0.986840546131134,
        0.987460196018219
      ],
      "min": [
        0.012541206553578377,
        0.012545943260192871
      ],
      "type": "VEC2"
    },
    {
      "bufferView": 1,
      "byteOffset": 15392,
      "componentType": 5126,
      "count": 962,
      "max": [
        0.986840546131134,
        0.987460196018219
      ],
      "min": [
        0.012541206553578377,
        0.012545943260192871
      ],
      "type": "VEC2"
    },
    {
      "bufferView": 1,
      "byteOffset": 23088,
      "componentType": 5126,
      "count": 962,
      "max": [
        0.986840546131134,
        0.987460196018219
      ],
      "min": [
        0.012541206553578377,
        0.012545943260192871
      ],
      "type": "VEC2"
    },
    {
      "bufferView": 1,
      "byteOffset": 30784,
      "componentType": 5126,
      "count": 962,
      "max": [
        0.986840546131134,
        0.987460196018219
      ],
      "min": [
        0.012541206553578377,
        0.012545943260192871
      ],
      "type": "VEC2"
    },
    {
      "bufferView": 1,
      "byteOffset": 38480,
      "componentType": 5126,
      "count": 962,
      "max": [
        0.986840546131134,
        0.987460196018219
      ],
      "min": [
        0.012541206553578377,
        0.012545943260192871
      ],
      "type": "VEC2"
    },
    {
      "bufferView": 0,
      "componentType": 5125,
      "count": 5376,
      "type": "SCALAR"
    }
  ],
  "asset": {
    "extras": {
      "author": "Gonsaku (https://sketchfab.com/Gonsaku)",
      "license": "SKETCHFAB Standard (https://sketchfab.com/licenses)",
      "source": "https://sketchfab.com/3d-models/stage-3cf977165ad74304ade083ba860da65e",
      "title": "Stage"
    },
    "generator": "Sketchfab-16.72.0",
    "version": "2.0"
  },
  "bufferViews": [
    {
      "buffer": 0,
      "byteLength": 21504,
      "name": "floatBufferViews",
      "target": 34963
    },
    {
      "buffer": 0,
      "byteLength": 46176,
      "byteOffset": 21504,
      "byteStride": 8,
      "name": "floatBufferViews",
      "target": 34962
    },
    {
      "buffer": 0,
      "byteLength": 23088,
      "byteOffset": 67680,
      "byteStride": 12,
      "name": "floatBufferViews",
      "target": 34962
    },
    {
      "buffer": 0,
      "byteLength": 15392,
      "byteOffset": 90768,
      "byteStride": 16,
      "name": "floatBufferViews",
      "target": 34962
    }
  ],
  "buffers": [
    {
      "byteLength": 106160,
      "uri": "scene.bin"
    }
  ],
  "images": [
    {
      "uri": "textures/MT_Stage_GLTF_baseColor.png"
    },
    {
      "uri": "textures/MT_Stage_GLTF_metallicRoughness.png"
    },
    {
      "uri": "textures/MT_Stage_GLTF_emissive.png"
    },
    {
      "uri": "textures/MT_Stage_GLTF_normal.png"
    }
  ],
  "materials": [
    {
      "emissiveFactor": [
        1.0,
        1.0,
        1.0
      ],
      "emissiveTexture": {
        "index": 2
      },
      "name": "MT_Stage_GLTF",
      "normalTexture": {
        "index": 3
      },
      "occlusionTexture": {
        "index": 1
      },
      "pbrMetallicRoughness": {
        "baseColorTexture": {
          "index": 0
        },
        "metallicRoughnessTexture": {
          "index": 1
        }
      }
    }
  ],
  "meshes": [
    {
      "name": "Object_0",
      "primitives": [
        {
          "attributes": {
            "NORMAL": 1,
            "POSITION": 0,
            "TANGENT": 2,
            "TEXCOORD_0": 3,
            "TEXCOORD_1": 4,
            "TEXCOORD_2": 5,
            "TEXCOORD_3": 6,
            "TEXCOORD_4": 7,
            "TEXCOORD_5": 8
          },
          "indices": 9,
          "material": 0,
          "mode": 4
        }
      ]
    }
  ],
  "nodes": [
    {
      "children": [
        1
      ],
      "matrix": [
        1.0,
        0.0,
        0.0,
        0.0,
        0.0,
        2.220446049250313e-16,
        -1.0,
        0.0,
        0.0,
        1.0,
        2.220446049250313e-16,
        0.0,
        0.0,
        0.0,
        0.0,
        1.0
      ],
      "name": "Sketchfab_model"
    },
    {
      "children": [
        2
      ],
      "name": "root"
    },
    {
      "children": [
        3
      ],
      "matrix": [
        1.0,
        0.0,
        0.0,
        0.0,
        0.0,
        2.220446049250313e-16,
        1.0,
        0.0,
        0.0,
        -1.0,
        2.220446049250313e-16,
        0.0,
        0.0,
        0.0,
        0.0,
        1.0
      ],
      "name": "GLTF_SceneRootNode"
    },
    {
      "children": [
        4
      ],
      "name": "M_Stage_0"
    },
    {
      "mesh": 0,
      "name": "Object_4"
    }
  ],
  "samplers": [
    {
      "magFilter": 9729,
      "minFilter": 9987,
      "wrapS": 10497,
      "wrapT": 10497
    }
  ],
  "scene": 0,
  "scenes": [
    {
      "name": "Sketchfab_Scene",
      "nodes": [
        0
      ]
    }
  ],
  "textures": [
    {
      "sampler": 0,
      "source": 0
    },
    {
      "sampler": 0,
      "source": 1
    },
    {
      "sampler": 0,
      "source": 2
    },
    {
      "sampler": 0,
      "source": 3
    }
  ]
}
