{
  "accessors": [
    {
      "bufferView": 2,
      "componentType": 5126,
      "count": 4061,
      "max": [
        0.9820205569267273,
        1.3068578243255615,
        4.1009440422058105
      ],
      "min": [
        -0.9820205569267273,
        -1.475337028503418,
        -0.00039505958557128906
      ],
      "type": "VEC3"
    },
    {
      "bufferView": 2,
      "byteOffset": 48732,
      "componentType": 5126,
      "count": 4061,
      "max": [
        1.0,
        0.9999987483024597,
        1.0
      ],
      "min": [
        -1.0,
        -0.9999987483024597,
        -1.0
      ],
      "type": "VEC3"
    },
    {
      "bufferView": 3,
      "componentType": 5126,
      "count": 4061,
      "max": [
        1.0,
        1.0,
        0.9999967813491821,
        1.0
      ],
      "min": [
        -1.0,
        -1.0,
        -0.9999998211860657,
        -1.0
      ],
      "type": "VEC4"
    },
    {
      "bufferView": 1,
      "componentType": 5126,
      "count": 4061,
      "max": [
        0.9597792625427246,
        0.9895244240760803
      ],
      "min": [
        0.010383855551481247,
        0.010467678308486938
      ],
      "type": "VEC2"
    },
    {
      "bufferView": 1,
      "byteOffset": 32488,
      "componentType": 5126,
      "count": 4061,
      "max": [
        0.9597792625427246,
        0.9895244240760803
      ],
      "min": [
        0.010383855551481247,
        0.010467678308486938
      ],
      "type": "VEC2"
    },
    {
      "bufferView": 1,
      "byteOffset": 64976,
      "componentType": 5126,
      "count": 4061,
      "max": [
        0.9597792625427246,
        0.9895244240760803
      ],
      "min": [
        0.010383855551481247,
        0.010467678308486938
      ],
      "type": "VEC2"
    },
    {
      "bufferView": 0,
      "componentType": 5125,
      "count": 18684,
      "type": "SCALAR"
    }
  ],
  "asset": {
    "extras": {
      "author": "assetfactory (https://sketchfab.com/assetfactory)",
      "license": "SKETCHFAB Standard (https://sketchfab.com/licenses)",
      "source": "https://sketchfab.com/3d-models/bumper-car-4b277e7d413648e8a1e3192b88a3f7d4",
      "title": "Bumper car"
    },
    "generator": "Sketchfab-16.33.0",
    "version": "2.0"
  },
  "bufferViews": [
    {
      "buffer": 0,
      "byteLength": 74736,
      "name": "floatBufferViews",
      "target": 34963
    },
    {
      "buffer": 0,
      "byteLength": 97464,
      "byteOffset": 74736,
      "byteStride": 8,
      "name": "floatBufferViews",
      "target": 34962
    },
    {
      "buffer": 0,
      "byteLength": 97464,
      "byteOffset": 172200,
      "byteStride": 12,
      "name": "floatBufferViews",
      "target": 34962
    },
    {
      "buffer": 0,
      "byteLength": 64976,
      "byteOffset": 269664,
      "byteStride": 16,
      "name": "floatBufferViews",
      "target": 34962
    }
  ],
  "buffers": [
    {
      "byteLength": 334640,
      "uri": "scene.bin"
    }
  ],
  "images": [
    {
      "uri": "textures/bumpercar_baseColor.png"
    },
    {
      "uri": "textures/bumpercar_metallicRoughness.png"
    },
    {
      "uri": "textures/bumpercar_normal.png"
    }
  ],
  "materials": [
    {
      "doubleSided": true,
      "name": "bumpercar",
      "normalTexture": {
        "index": 2
      },
      "pbrMetallicRoughness": {
        "baseColorTexture": {
          "index": 0
        },
        "metallicFactor": 0.0,
        "metallicRoughnessTexture": {
          "index": 1
        }
      }
    }
  ],
  "meshes": [
    {
      "name": "bumpercar_bumpercar_0",
      "primitives": [
        {
          "attributes": {
            "NORMAL": 1,
            "POSITION": 0,
            "TANGENT": 2,
            "TEXCOORD_0": 3,
            "TEXCOORD_1": 4,
            "TEXCOORD_2": 5
          },
          "indices": 6,
          "material": 0,
          "mode": 4
        }
      ]
    }
  ],
  "nodes": [
    {
      "children": [
        1
      ],
      "matrix": [
        1.0,
        0.0,
        0.0,
        0.0,
        0.0,
        2.220446049250313e-16,
        -1.0,
        0.0,
        0.0,
        1.0,
        2.220446049250313e-16,
        0.0,
        0.0,
        0.0,
        0.0,
        1.0
      ],
      "name": "Sketchfab_model"
    },
    {
      "children": [
        2
      ],
      "matrix": [
        0.009999999776482582,
        0.0,
        0.0,
        0.0,
        0.0,
        0.0,
        0.009999999776482582,
        0.0,
        0.0,
        -0.009999999776482582,
        0.0,
        0.0,
        0.0,
        0.0,
        0.0,
        1.0
      ],
      "name": "6820b1cb0baf485282a03ece8ec5f8ee.fbx"
    },
    {
      "children": [
        3
      ],
      "name": "RootNode"
    },
    {
      "children": [
        4
      ],
      "matrix": [
        4.371139006309477e-06,
        -1.1102230246251565e-14,
        -99.99999999999991,
        0.0,
        -99.99999999999982,
        -4.371139006309477e-06,
        -4.371139011860592e-06,
        0.0,
        -4.371139011860592e-06,
        99.99999999999991,
        -1.9984014443252818e-13,
        0.0,
        4.921774387359619,
        -1.862645149230957e-07,
        -3.174530029296875,
        1.0
      ],
      "name": "bumpercar"
    },
    {
      "mesh": 0,
      "name": "bumpercar_bumpercar_0"
    }
  ],
  "samplers": [
    {
      "magFilter": 9729,
      "minFilter": 9987,
      "wrapS": 10497,
      "wrapT": 10497
    }
  ],
  "scene": 0,
  "scenes": [
    {
      "name": "Sketchfab_Scene",
      "nodes": [
        0
      ]
    }
  ],
  "textures": [
    {
      "sampler": 0,
      "source": 0
    },
    {
      "sampler": 0,
      "source": 1
    },
    {
      "sampler": 0,
      "source": 2
    }
  ]
}
