{
  "accessors": [
    {
      "bufferView": 2,
      "componentType": 5126,
      "count": 13798,
      "max": [
        0.9359374642372131,
        0.6704813838005066,
        0.544049859046936
      ],
      "min": [
        -0.9367844462394714,
        -0.6945438385009766,
        -0.09620890021324158
      ],
      "type": "VEC3"
    },
    {
      "bufferView": 2,
      "byteOffset": 165576,
      "componentType": 5126,
      "count": 13798,
      "max": [
        1.0,
        1.0,
        1.0
      ],
      "min": [
        -1.0,
        -1.0,
        -1.0
      ],
      "type": "VEC3"
    },
    {
      "bufferView": 3,
      "componentType": 5126,
      "count": 13798,
      "max": [
        1.0,
        1.0,
        1.0,
        1.0
      ],
      "min": [
        -1.0,
        -1.0,
        -0.9999793171882629,
        -1.0
      ],
      "type": "VEC4"
    },
    {
      "bufferView": 1,
      "componentType": 5126,
      "count": 13798,
      "max": [
        0.9944134950637817,
        0.9999999403953552
      ],
      "min": [
        0.00040654707117937505,
        0.00021865041344426572
      ],
      "type": "VEC2"
    },
    {
      "bufferView": 1,
      "byteOffset": 110384,
      "componentType": 5126,
      "count": 13798,
      "max": [
        0.9944134950637817,
        0.9999999403953552
      ],
      "min": [
        0.00040654707117937505,
        0.00021865041344426572
      ],
      "type": "VEC2"
    },
    {
      "bufferView": 1,
      "byteOffset": 220768,
      "componentType": 5126,
      "count": 13798,
      "max": [
        0.9944134950637817,
        0.9999999403953552
      ],
      "min": [
        0.00040654707117937505,
        0.00021865041344426572
      ],
      "type": "VEC2"
    },
    {
      "bufferView": 1,
      "byteOffset": 331152,
      "componentType": 5126,
      "count": 13798,
      "max": [
        0.9944134950637817,
        0.9999999403953552
      ],
      "min": [
        0.00040654707117937505,
        0.00021865041344426572
      ],
      "type": "VEC2"
    },
    {
      "bufferView": 0,
      "componentType": 5125,
      "count": 47484,
      "type": "SCALAR"
    }
  ],
  "asset": {
    "extras": {
      "author": "ijiklvn (https://sketchfab.com/kelvin-carvalho)",
      "license": "CC-BY-4.0 (http://creativecommons.org/licenses/by/4.0/)",
      "source": "https://sketchfab.com/3d-models/brazilian-bus-stop-a66713c8c5a249059d8dac20465ed0fd",
      "title": "BRAZILIAN BUS STOP"
    },
    "generator": "Sketchfab-15.58.0",
    "version": "2.0"
  },
  "bufferViews": [
    {
      "buffer": 0,
      "byteLength": 189936,
      "name": "floatBufferViews",
      "target": 34963
    },
    {
      "buffer": 0,
      "byteLength": 441536,
      "byteOffset": 189936,
      "byteStride": 8,
      "name": "floatBufferViews",
      "target": 34962
    },
    {
      "buffer": 0,
      "byteLength": 331152,
      "byteOffset": 631472,
      "byteStride": 12,
      "name": "floatBufferViews",
      "target": 34962
    },
    {
      "buffer": 0,
      "byteLength": 220768,
      "byteOffset": 962624,
      "byteStride": 16,
      "name": "floatBufferViews",
      "target": 34962
    }
  ],
  "buffers": [
    {
      "byteLength": 1183392,
      "uri": "scene.bin"
    }
  ],
  "images": [
    {
      "uri": "textures/material_baseColor.png"
    },
    {
      "uri": "textures/material_metallicRoughness.png"
    },
    {
      "uri": "textures/material_normal.png"
    }
  ],
  "materials": [
    {
      "doubleSided": true,
      "name": "material",
      "normalTexture": {
        "index": 2,
        "texCoord": 2
      },
      "occlusionTexture": {
        "index": 1
      },
      "pbrMetallicRoughness": {
        "baseColorTexture": {
          "index": 0
        },
        "metallicRoughnessTexture": {
          "index": 1,
          "texCoord": 1
        },
        "roughnessFactor": 0.6628591629993539
      }
    }
  ],
  "meshes": [
    {
      "name": "Object_0",
      "primitives": [
        {
          "attributes": {
            "NORMAL": 1,
            "POSITION": 0,
            "TANGENT": 2,
            "TEXCOORD_0": 3,
            "TEXCOORD_1": 4,
            "TEXCOORD_2": 5,
            "TEXCOORD_3": 6
          },
          "indices": 7,
          "material": 0,
          "mode": 4
        }
      ]
    }
  ],
  "nodes": [
    {
      "children": [
        1
      ],
      "matrix": [
        1.0,
        0.0,
        0.0,
        0.0,
        0.0,
        2.220446049250313e-16,
        -1.0,
        0.0,
        0.0,
        1.0,
        2.220446049250313e-16,
        0.0,
        0.0,
        0.0,
        0.0,
        1.0
      ],
      "name": "Sketchfab_model"
    },
    {
      "children": [
        2
      ],
      "name": "root"
    },
    {
      "children": [
        3
      ],
      "matrix": [
        1.0,
        0.0,
        0.0,
        0.0,
        0.0,
        2.220446049250313e-16,
        1.0,
        0.0,
        0.0,
        -1.0,
        2.220446049250313e-16,
        0.0,
        0.0,
        0.0,
        0.0,
        1.0
      ],
      "name": "GLTF_SceneRootNode"
    },
    {
      "children": [
        4
      ],
      "matrix": [
        1.0,
        0.0,
        0.0,
        0.0,
        0.0,
        0.9632862119585248,
        0.2684765797059327,
        0.0,
        0.0,
        -0.2684765797059327,
        0.9632862119585248,
        0.0,
        -0.03930896148085594,
        0.7191185355186462,
        -0.39288330078125,
        1.0
      ],
      "name": "Plane.007_0"
    },
    {
      "mesh": 0,
      "name": "Object_4"
    }
  ],
  "samplers": [
    {
      "magFilter": 9729,
      "minFilter": 9987,
      "wrapS": 10497,
      "wrapT": 10497
    }
  ],
  "scene": 0,
  "scenes": [
    {
      "name": "Sketchfab_Scene",
      "nodes": [
        0
      ]
    }
  ],
  "textures": [
    {
      "sampler": 0,
      "source": 0
    },
    {
      "sampler": 0,
      "source": 1
    },
    {
      "sampler": 0,
      "source": 2
    }
  ]
}
