{
  "accessors": [
    {
      "bufferView": 2,
      "componentType": 5126,
      "count": 18,
      "max": [
        53.309593200683594,
        -0.00012381984561216086,
        8.784500122070313
      ],
      "min": [
        -44.511138916015625,
        -0.0008556040120311081,
        -49.29056930541992
      ],
      "type": "VEC3"
    },
    {
      "bufferView": 2,
      "byteOffset": 216,
      "componentType": 5126,
      "count": 18,
      "max": [
        0.0,
        1.0,
        0.0
      ],
      "min": [
        0.0,
        1.0,
        0.0
      ],
      "type": "VEC3"
    },
    {
      "bufferView": 1,
      "componentType": 5126,
      "count": 18,
      "max": [
        1.0000005960464478,
        1.0000005960464478
      ],
      "min": [
        0.0,
        0.0
      ],
      "type": "VEC2"
    },
    {
      "bufferView": 0,
      "componentType": 5125,
      "count": 24,
      "type": "SCALAR"
    },
    {
      "bufferView": 2,
      "byteOffset": 432,
      "componentType": 5126,
      "count": 42132,
      "max": [
        52.849578857421875,
        6.538210391998291,
        8.2568998336792
      ],
      "min": [
        -44.051239013671875,
        -0.07105620205402374,
        -48.76298141479492
      ],
      "type": "VEC3"
    },
    {
      "bufferView": 2,
      "byteOffset": 506016,
      "componentType": 5126,
      "count": 42132,
      "max": [
        1.0,
        1.0,
        1.0
      ],
      "min": [
        -1.0,
        -1.0,
        -1.0
      ],
      "type": "VEC3"
    },
    {
      "bufferView": 1,
      "byteOffset": 144,
      "componentType": 5126,
      "count": 42132,
      "max": [
        0.9912211298942566,
        0.9763309955596924
      ],
      "min": [
        0.34977900981903076,
        0.6668570041656494
      ],
      "type": "VEC2"
    },
    {
      "bufferView": 0,
      "byteOffset": 96,
      "componentType": 5125,
      "count": 45540,
      "type": "SCALAR"
    },
    {
      "bufferView": 2,
      "byteOffset": 1011600,
      "componentType": 5126,
      "count": 1072,
      "max": [
        53.34002685546875,
        7.280847072601318,
        10.615690231323242
      ],
      "min": [
        -44.54121017456055,
        -0.10210999846458435,
        -51.121726989746094
      ],
      "type": "VEC3"
    },
    {
      "bufferView": 2,
      "byteOffset": 1024464,
      "componentType": 5126,
      "count": 1072,
      "max": [
        1.0,
        1.0,
        1.0
      ],
      "min": [
        -1.0,
        -1.0,
        -1.0
      ],
      "type": "VEC3"
    },
    {
      "bufferView": 1,
      "byteOffset": 337200,
      "componentType": 5126,
      "count": 1072,
      "max": [
        0.965641438961029,
        0.9920892119407654
      ],
      "min": [
        0.4269390106201172,
        0.3327080011367798
      ],
      "type": "VEC2"
    },
    {
      "bufferView": 0,
      "byteOffset": 182256,
      "componentType": 5125,
      "count": 1716,
      "type": "SCALAR"
    }
  ],
  "asset": {
    "extras": {
      "author": "Vertex (https://sketchfab.com/vertex.)",
      "license": "CC-BY-4.0 (http://creativecommons.org/licenses/by/4.0/)",
      "source": "https://sketchfab.com/3d-models/modern-parking-area-a99ebc86d6224bffbaf310db880d72b6",
      "title": "Modern Parking Area"
    },
    "generator": "Sketchfab-16.72.0",
    "version": "2.0"
  },
  "bufferViews": [
    {
      "buffer": 0,
      "byteLength": 189120,
      "name": "floatBufferViews",
      "target": 34963
    },
    {
      "buffer": 0,
      "byteLength": 345776,
      "byteOffset": 189120,
      "byteStride": 8,
      "name": "floatBufferViews",
      "target": 34962
    },
    {
      "buffer": 0,
      "byteLength": 1037328,
      "byteOffset": 534896,
      "byteStride": 12,
      "name": "floatBufferViews",
      "target": 34962
    }
  ],
  "buffers": [
    {
      "byteLength": 1572224,
      "uri": "scene.bin"
    }
  ],
  "images": [
    {
      "uri": "textures/Parking_Area_Tex_baseColor.jpeg"
    },
    {
      "uri": "textures/Props_Atlas_baseColor.jpeg"
    },
    {
      "uri": "textures/Vegetation_Atlas_baseColor.png"
    }
  ],
  "materials": [
    {
      "doubleSided": true,
      "name": "Parking_Area_Tex",
      "pbrMetallicRoughness": {
        "baseColorTexture": {
          "index": 0
        },
        "metallicFactor": 0.0,
        "roughnessFactor": 0.6
      }
    },
    {
      "doubleSided": true,
      "name": "Props_Atlas",
      "pbrMetallicRoughness": {
        "baseColorTexture": {
          "index": 1
        },
        "metallicFactor": 0.0,
        "roughnessFactor": 0.6
      }
    },
    {
      "alphaMode": "BLEND",
      "doubleSided": true,
      "name": "Vegetation_Atlas",
      "pbrMetallicRoughness": {
        "baseColorTexture": {
          "index": 2
        },
        "metallicFactor": 0.0,
        "roughnessFactor": 0.8929713596497552
      }
    }
  ],
  "meshes": [
    {
      "name": "Parking Area_Parking_Area_Tex_0_Parking_Area_Tex_0",
      "primitives": [
        {
          "attributes": {
            "NORMAL": 1,
            "POSITION": 0,
            "TEXCOORD_0": 2
          },
          "indices": 3,
          "material": 0,
          "mode": 4
        }
      ]
    },
    {
      "name": "Parking Area_Props_Atlas_0_Props_Atlas_0",
      "primitives": [
        {
          "attributes": {
            "NORMAL": 5,
            "POSITION": 4,
            "TEXCOORD_0": 6
          },
          "indices": 7,
          "material": 1,
          "mode": 4
        }
      ]
    },
    {
      "name": "Vegetation_Vegetation_Atlas_0_Vegetation_Atlas_0",
      "primitives": [
        {
          "attributes": {
            "NORMAL": 9,
            "POSITION": 8,
            "TEXCOORD_0": 10
          },
          "indices": 11,
          "material": 2,
          "mode": 4
        }
      ]
    }
  ],
  "nodes": [
    {
      "children": [
        1
      ],
      "matrix": [
        1.0,
        0.0,
        0.0,
        0.0,
        0.0,
        2.220446049250313e-16,
        -1.0,
        0.0,
        0.0,
        1.0,
        2.220446049250313e-16,
        0.0,
        0.0,
        0.0,
        0.0,
        1.0
      ],
      "name": "Sketchfab_model"
    },
    {
      "children": [
        2
      ],
      "matrix": [
        1.0,
        0.0,
        0.0,
        0.0,
        0.0,
        0.0,
        1.0,
        0.0,
        0.0,
        -1.0,
        0.0,
        0.0,
        0.0,
        0.0,
        0.0,
        1.0
      ],
      "name": "Modern Parking Area.fbx"
    },
    {
      "children": [
        3
      ],
      "name": "RootNode"
    },
    {
      "children": [
        4,
        6,
        8
      ],
      "matrix": [
        0.009999999776482582,
        0.0,
        0.0,
        0.0,
        0.0,
        0.009999999776482572,
        4.3711387309712265e-10,
        0.0,
        0.0,
        -4.3711387309712265e-10,
        0.009999999776482572,
        0.0,
        0.0,
        0.0,
        0.0,
        1.0
      ],
      "name": "Modern Parking Area"
    },
    {
      "children": [
        5
      ],
      "matrix": [
        1.0,
        0.0,
        0.0,
        0.0,
        0.0,
        1.0,
        3.552713692035389e-15,
        0.0,
        0.0,
        -3.552713692035389e-15,
        1.0,
        0.0,
        0.0,
        0.0,
        0.0,
        1.0
      ],
      "name": "Parking Area_Parking_Area_Tex_0"
    },
    {
      "mesh": 0,
      "name": "Parking Area_Parking_Area_Tex_0_Parking_Area_Tex_0"
    },
    {
      "children": [
        7
      ],
      "matrix": [
        1.0,
        0.0,
        0.0,
        0.0,
        0.0,
        1.0,
        3.552713692035389e-15,
        0.0,
        0.0,
        -3.552713692035389e-15,
        1.0,
        0.0,
        0.0,
        0.0,
        0.0,
        1.0
      ],
      "name": "Parking Area_Props_Atlas_0"
    },
    {
      "mesh": 1,
      "name": "Parking Area_Props_Atlas_0_Props_Atlas_0"
    },
    {
      "children": [
        9
      ],
      "matrix": [
        1.0,
        0.0,
        0.0,
        0.0,
        0.0,
        1.0,
        3.552713692035389e-15,
        0.0,
        0.0,
        -3.552713692035389e-15,
        1.0,
        0.0,
        0.0,
        0.0,
        0.0,
        1.0
      ],
      "name": "Vegetation_Vegetation_Atlas_0"
    },
    {
      "mesh": 2,
      "name": "Vegetation_Vegetation_Atlas_0_Vegetation_Atlas_0"
    }
  ],
  "samplers": [
    {
      "magFilter": 9729,
      "minFilter": 9987,
      "wrapS": 10497,
      "wrapT": 10497
    }
  ],
  "scene": 0,
  "scenes": [
    {
      "name": "Sketchfab_Scene",
      "nodes": [
        0
      ]
    }
  ],
  "textures": [
    {
      "sampler": 0,
      "source": 0
    },
    {
      "sampler": 0,
      "source": 1
    },
    {
      "sampler": 0,
      "source": 2
    }
  ]
}
