{
  "accessors": [
    {
      "bufferView": 2,
      "componentType": 5126,
      "count": 60,
      "max": [
        1.1646499633789063,
        0.6834689974784851,
        5.731420040130615
      ],
      "min": [
        -1.1646499633789063,
        0.4918749928474426,
        5.605899810791016
      ],
      "type": "VEC3"
    },
    {
      "bufferView": 2,
      "byteOffset": 720,
      "componentType": 5126,
      "count": 60,
      "max": [
        0.49000945687294006,
        0.010315441526472569,
        0.9824607372283936
      ],
      "min": [
        -0.49000945687294006,
        -0.011078315787017345,
        0.8716467022895813
      ],
      "type": "VEC3"
    },
    {
      "bufferView": 1,
      "componentType": 5126,
      "count": 60,
      "max": [
        0.5595560073852539,
        0.8777830004692078
      ],
      "min": [
        0.46569499373435974,
        0.7941210269927979
      ],
      "type": "VEC2"
    },
    {
      "bufferView": 0,
      "componentType": 5125,
      "count": 144,
      "type": "SCALAR"
    },
    {
      "bufferView": 2,
      "byteOffset": 1440,
      "componentType": 5126,
      "count": 734,
      "max": [
        1.2423099279403687,
        3.1583099365234375,
        5.784679889678955
      ],
      "min": [
        -1.2423099279403687,
        0.7925739884376526,
        -5.727139949798584
      ],
      "type": "VEC3"
    },
    {
      "bufferView": 2,
      "byteOffset": 10248,
      "componentType": 5126,
      "count": 734,
      "max": [
        1.0,
        0.2350890040397644,
        0.9915044903755188
      ],
      "min": [
        -1.0,
        -0.04310815408825874,
        -4.062249718117528e-05
      ],
      "type": "VEC3"
    },
    {
      "bufferView": 1,
      "byteOffset": 480,
      "componentType": 5126,
      "count": 734,
      "max": [
        0.8302950263023376,
        0.901794970035553
      ],
      "min": [
        0.013667159713804722,
        0.07181005924940109
      ],
      "type": "VEC2"
    },
    {
      "bufferView": 0,
      "byteOffset": 576,
      "componentType": 5125,
      "count": 1824,
      "type": "SCALAR"
    },
    {
      "bufferView": 2,
      "byteOffset": 19056,
      "componentType": 5126,
      "count": 8,
      "max": [
        0.2038399875164032,
        0.660057008266449,
        5.826580047607422
      ],
      "min": [
        -0.19993999600410461,
        0.5073109865188599,
        -6.197249889373779
      ],
      "type": "VEC3"
    },
    {
      "bufferView": 2,
      "byteOffset": 19152,
      "componentType": 5126,
      "count": 8,
      "max": [
        0.0,
        0.0,
        1.0
      ],
      "min": [
        0.0,
        0.0,
        -1.0
      ],
      "type": "VEC3"
    },
    {
      "bufferView": 1,
      "byteOffset": 6352,
      "componentType": 5126,
      "count": 8,
      "max": [
        0.2239769995212555,
        0.5533120036125183
      ],
      "min": [
        0.08172117918729782,
        0.468531996011734
      ],
      "type": "VEC2"
    },
    {
      "bufferView": 0,
      "byteOffset": 7872,
      "componentType": 5125,
      "count": 12,
      "type": "SCALAR"
    },
    {
      "bufferView": 2,
      "byteOffset": 19248,
      "componentType": 5126,
      "count": 388,
      "max": [
        1.249269962310791,
        1.2770799398422241,
        3.6082799434661865
      ],
      "min": [
        -1.2499499320983887,
        1.2159099578857422,
        -3.5852298736572266
      ],
      "type": "VEC3"
    },
    {
      "bufferView": 2,
      "byteOffset": 23904,
      "componentType": 5126,
      "count": 388,
      "max": [
        1.0,
        0.9581008553504944,
        0.3909812867641449
      ],
      "min": [
        -1.0,
        -0.9584842324256897,
        -0.3909554183483124
      ],
      "type": "VEC3"
    },
    {
      "bufferView": 1,
      "byteOffset": 6416,
      "componentType": 5126,
      "count": 388,
      "max": [
        0.22675000131130219,
        0.4854460060596466
      ],
      "min": [
        0.2069990038871765,
        0.376787006855011
      ],
      "type": "VEC2"
    },
    {
      "bufferView": 0,
      "byteOffset": 7920,
      "componentType": 5125,
      "count": 1440,
      "type": "SCALAR"
    },
    {
      "bufferView": 2,
      "byteOffset": 28560,
      "componentType": 5126,
      "count": 672,
      "max": [
        1.1890699863433838,
        0.4176419973373413,
        5.2811598777771
      ],
      "min": [
        0.946491003036499,
        0.1255788952112198,
        -4.365269660949707
      ],
      "type": "VEC3"
    },
    {
      "bufferView": 2,
      "byteOffset": 36624,
      "componentType": 5126,
      "count": 672,
      "max": [
        1.0,
        1.0,
        1.0
      ],
      "min": [
        -1.0,
        -1.0,
        -1.0
      ],
      "type": "VEC3"
    },
    {
      "bufferView": 1,
      "byteOffset": 9520,
      "componentType": 5126,
      "count": 672,
      "max": [
        0.8167740106582642,
        0.5826399922370911
      ],
      "min": [
        0.803646981716156,
        0.5668349862098694
      ],
      "type": "VEC2"
    },
    {
      "bufferView": 0,
      "byteOffset": 13680,
      "componentType": 5125,
      "count": 1416,
      "type": "SCALAR"
    },
    {
      "bufferView": 2,
      "byteOffset": 44688,
      "componentType": 5126,
      "count": 2819,
      "max": [
        1.1458299160003662,
        3.194239854812622,
        5.295079708099365
      ],
      "min": [
        -1.1458299160003662,
        2.3677499294281006,
        -5.899399757385254
      ],
      "type": "VEC3"
    },
    {
      "bufferView": 2,
      "byteOffset": 78516,
      "componentType": 5126,
      "count": 2819,
      "max": [
        1.0,
        1.0,
        1.0
      ],
      "min": [
        -1.0,
        -1.0,
        -1.0
      ],
      "type": "VEC3"
    },
    {
      "bufferView": 1,
      "byteOffset": 14896,
      "componentType": 5126,
      "count": 2819,
      "max": [
        0.9020429849624634,
        0.9380689859390259
      ],
      "min": [
        0.2214280068874359,
        0.3251439929008484
      ],
      "type": "VEC2"
    },
    {
      "bufferView": 0,
      "byteOffset": 19344,
      "componentType": 5125,
      "count": 7644,
      "type": "SCALAR"
    },
    {
      "bufferView": 2,
      "byteOffset": 112344,
      "componentType": 5126,
      "count": 5173,
      "max": [
        1.2423099279403687,
        3.214169979095459,
        5.827319622039795
      ],
      "min": [
        -1.2423099279403687,
        0.30403998494148254,
        -6.189159870147705
      ],
      "type": "VEC3"
    },
    {
      "bufferView": 2,
      "byteOffset": 174420,
      "componentType": 5126,
      "count": 5173,
      "max": [
        1.0,
        1.0,
        1.0
      ],
      "min": [
        -1.0,
        -1.0,
        -1.0
      ],
      "type": "VEC3"
    },
    {
      "bufferView": 1,
      "byteOffset": 37448,
      "componentType": 5126,
      "count": 5173,
      "max": [
        0.9178919792175293,
        0.9408249855041504
      ],
      "min": [
        0.21722300350666046,
        0.5381069779396057
      ],
      "type": "VEC2"
    },
    {
      "bufferView": 0,
      "byteOffset": 49920,
      "componentType": 5125,
      "count": 9576,
      "type": "SCALAR"
    },
    {
      "bufferView": 2,
      "byteOffset": 236496,
      "componentType": 5126,
      "count": 2535,
      "max": [
        1.2285199165344238,
        3.0707199573516846,
        5.476609706878662
      ],
      "min": [
        -1.2285199165344238,
        0.42980700731277466,
        -6.209630012512207
      ],
      "type": "VEC3"
    },
    {
      "bufferView": 2,
      "byteOffset": 266916,
      "componentType": 5126,
      "count": 2535,
      "max": [
        0.9999845027923584,
        1.0,
        0.9999868869781494
      ],
      "min": [
        -0.9999827146530151,
        -1.0,
        -0.9999868869781494
      ],
      "type": "VEC3"
    },
    {
      "bufferView": 1,
      "byteOffset": 78832,
      "componentType": 5126,
      "count": 2535,
      "max": [
        0.8317880034446716,
        0.9869269728660583
      ],
      "min": [
        0.18172290921211243,
        0.3597770035266876
      ],
      "type": "VEC2"
    },
    {
      "bufferView": 0,
      "byteOffset": 88224,
      "componentType": 5125,
      "count": 11400,
      "type": "SCALAR"
    },
    {
      "bufferView": 2,
      "byteOffset": 297336,
      "componentType": 5126,
      "count": 214,
      "max": [
        0.5804349780082703,
        0.7571240067481995,
        5.823919773101807
      ],
      "min": [
        -0.5804349780082703,
        0.5296840071678162,
        5.753079891204834
      ],
      "type": "VEC3"
    },
    {
      "bufferView": 2,
      "byteOffset": 299904,
      "componentType": 5126,
      "count": 214,
      "max": [
        0.9086076617240906,
        1.0,
        1.0
      ],
      "min": [
        -0.9086076617240906,
        -0.9998307228088379,
        -0.0004472820437513292
      ],
      "type": "VEC3"
    },
    {
      "bufferView": 1,
      "byteOffset": 99112,
      "componentType": 5126,
      "count": 214,
      "max": [
        0.7690309882164001,
        0.8286269903182983
      ],
      "min": [
        0.6251899600028992,
        0.800445020198822
      ],
      "type": "VEC2"
    },
    {
      "bufferView": 0,
      "byteOffset": 133824,
      "componentType": 5125,
      "count": 444,
      "type": "SCALAR"
    },
    {
      "bufferView": 2,
      "byteOffset": 302472,
      "componentType": 5126,
      "count": 178,
      "max": [
        1.251979947090149,
        2.180690050125122,
        5.382599830627441
      ],
      "min": [
        -1.251979947090149,
        0.5322459936141968,
        3.118259906768799
      ],
      "type": "VEC3"
    },
    {
      "bufferView": 2,
      "byteOffset": 304608,
      "componentType": 5126,
      "count": 178,
      "max": [
        1.0,
        0.8488938212394714,
        1.0
      ],
      "min": [
        -1.0,
        -0.9131281971931458,
        -0.9753870964050293
      ],
      "type": "VEC3"
    },
    {
      "bufferView": 1,
      "byteOffset": 100824,
      "componentType": 5126,
      "count": 178,
      "max": [
        0.46211200952529907,
        0.5706030130386353
      ],
      "min": [
        0.24674399197101593,
        0.44818800687789917
      ],
      "type": "VEC2"
    },
    {
      "bufferView": 0,
      "byteOffset": 135600,
      "componentType": 5125,
      "count": 414,
      "type": "SCALAR"
    },
    {
      "bufferView": 2,
      "byteOffset": 306744,
      "componentType": 5126,
      "count": 250,
      "max": [
        0.8108869791030884,
        0.6739169955253601,
        -6.095409870147705
      ],
      "min": [
        -0.8108869791030884,
        0.3594509959220886,
        -6.209069728851318
      ],
      "type": "VEC3"
    },
    {
      "bufferView": 2,
      "byteOffset": 309744,
      "componentType": 5126,
      "count": 250,
      "max": [
        1.0,
        0.03723284229636192,
        0.0
      ],
      "min": [
        -1.0,
        -1.0,
        -1.0
      ],
      "type": "VEC3"
    },
    {
      "bufferView": 1,
      "byteOffset": 102248,
      "componentType": 5126,
      "count": 250,
      "max": [
        0.9166809916496277,
        0.6044889688491821
      ],
      "min": [
        0.8397699594497681,
        0.5895749926567078
      ],
      "type": "VEC2"
    },
    {
      "bufferView": 0,
      "byteOffset": 137256,
      "componentType": 5125,
      "count": 714,
      "type": "SCALAR"
    },
    {
      "bufferView": 2,
      "byteOffset": 312744,
      "componentType": 5126,
      "count": 4316,
      "max": [
        1.2423099279403687,
        3.274479866027832,
        5.827319622039795
      ],
      "min": [
        -1.2423099279403687,
        0.30403998494148254,
        -5.8520097732543945
      ],
      "type": "VEC3"
    },
    {
      "bufferView": 2,
      "byteOffset": 364536,
      "componentType": 5126,
      "count": 4316,
      "max": [
        1.0,
        1.0,
        1.0
      ],
      "min": [
        -1.0,
        -1.0,
        -1.0
      ],
      "type": "VEC3"
    },
    {
      "bufferView": 1,
      "byteOffset": 104248,
      "componentType": 5126,
      "count": 4316,
      "max": [
        0.7753890156745911,
        0.9518799781799316
      ],
      "min": [
        0.66948401927948,
        0.8252679705619812
      ],
      "type": "VEC2"
    },
    {
      "bufferView": 0,
      "byteOffset": 140112,
      "componentType": 5125,
      "count": 11790,
      "type": "SCALAR"
    },
    {
      "bufferView": 2,
      "byteOffset": 416328,
      "componentType": 5126,
      "count": 12199,
      "max": [
        1.2596399784088135,
        3.3245999813079834,
        5.847059726715088
      ],
      "min": [
        -1.2596399784088135,
        0.30403998494148254,
        -6.220669746398926
      ],
      "type": "VEC3"
    },
    {
      "bufferView": 2,
      "byteOffset": 562716,
      "componentType": 5126,
      "count": 12199,
      "max": [
        1.0,
        1.0,
        1.0
      ],
      "min": [
        -1.0,
        -1.0,
        -1.0
      ],
      "type": "VEC3"
    },
    {
      "bufferView": 1,
      "byteOffset": 138776,
      "componentType": 5126,
      "count": 12199,
      "max": [
        0.9782879948616028,
        0.9266089797019958
      ],
      "min": [
        0.011923959478735924,
        0.016606679186224937
      ],
      "type": "VEC2"
    },
    {
      "bufferView": 0,
      "byteOffset": 187272,
      "componentType": 5125,
      "count": 35310,
      "type": "SCALAR"
    },
    {
      "bufferView": 2,
      "byteOffset": 709104,
      "componentType": 5126,
      "count": 550,
      "max": [
        0.8586879968643188,
        1.4784200191497803,
        5.816169738769531
      ],
      "min": [
        -0.8586879968643188,
        1.2228800058364868,
        5.712239742279053
      ],
      "type": "VEC3"
    },
    {
      "bufferView": 2,
      "byteOffset": 715704,
      "componentType": 5126,
      "count": 550,
      "max": [
        0.9960805773735046,
        0.9762120842933655,
        0.9974805116653442
      ],
      "min": [
        -0.9958130121231079,
        -0.999284029006958,
        -0.9964097142219543
      ],
      "type": "VEC3"
    },
    {
      "bufferView": 1,
      "byteOffset": 236368,
      "componentType": 5126,
      "count": 550,
      "max": [
        0.8820729851722717,
        0.6846839785575867
      ],
      "min": [
        0.8215060234069824,
        0.5357639789581299
      ],
      "type": "VEC2"
    },
    {
      "bufferView": 0,
      "byteOffset": 328512,
      "componentType": 5125,
      "count": 2124,
      "type": "SCALAR"
    },
    {
      "bufferView": 2,
      "byteOffset": 722304,
      "componentType": 5126,
      "count": 2246,
      "max": [
        1.440659999847412,
        2.6663098335266113,
        5.969490051269531
      ],
      "min": [
        -1.440659999847412,
        1.8637700080871582,
        5.200389862060547
      ],
      "type": "VEC3"
    },
    {
      "bufferView": 2,
      "byteOffset": 749256,
      "componentType": 5126,
      "count": 2246,
      "max": [
        1.0,
        0.9998317956924438,
        0.9992347955703735
      ],
      "min": [
        -1.0,
        -0.9998102188110352,
        -0.9932376146316528
      ],
      "type": "VEC3"
    },
    {
      "bufferView": 1,
      "byteOffset": 240768,
      "componentType": 5126,
      "count": 2246,
      "max": [
        0.06810498237609863,
        0.5443679690361023
      ],
      "min": [
        0.018351249396800995,
        0.45509201288223267
      ],
      "type": "VEC2"
    },
    {
      "bufferView": 0,
      "byteOffset": 337008,
      "componentType": 5125,
      "count": 8508,
      "type": "SCALAR"
    },
    {
      "bufferView": 2,
      "byteOffset": 776208,
      "componentType": 5126,
      "count": 2355,
      "max": [
        1.0089799165725708,
        3.5518298149108887,
        3.1485300064086914
      ],
      "min": [
        -1.0090500116348267,
        3.2694499492645264,
        -4.264820098876953
      ],
      "type": "VEC3"
    },
    {
      "bufferView": 2,
      "byteOffset": 804468,
      "componentType": 5126,
      "count": 2355,
      "max": [
        1.0,
        0.9997180700302124,
        0.9999996423721313
      ],
      "min": [
        -1.0,
        -0.09213713556528091,
        -0.9999996423721313
      ],
      "type": "VEC3"
    },
    {
      "bufferView": 1,
      "byteOffset": 258736,
      "componentType": 5126,
      "count": 2355,
      "max": [
        0.745576024055481,
        0.5786979794502258
      ],
      "min": [
        0.4705449938774109,
        0.40025100111961365
      ],
      "type": "VEC2"
    },
    {
      "bufferView": 0,
      "byteOffset": 371040,
      "componentType": 5125,
      "count": 7230,
      "type": "SCALAR"
    },
    {
      "bufferView": 2,
      "byteOffset": 832728,
      "componentType": 5126,
      "count": 31189,
      "max": [
        1.1414999961853027,
        2.7525699138641357,
        3.850909948348999
      ],
      "min": [
        -1.1414999961853027,
        1.57014000415802,
        -5.286399841308594
      ],
      "type": "VEC3"
    },
    {
      "bufferView": 2,
      "byteOffset": 1206996,
      "componentType": 5126,
      "count": 31189,
      "max": [
        1.0,
        1.0,
        0.9999998807907104
      ],
      "min": [
        -1.0,
        -1.0,
        -0.9999998807907104
      ],
      "type": "VEC3"
    },
    {
      "bufferView": 1,
      "byteOffset": 277576,
      "componentType": 5126,
      "count": 31189,
      "max": [
        0.9139580130577087,
        0.9474189877510071
      ],
      "min": [
        0.7174659967422485,
        0.345550000667572
      ],
      "type": "VEC2"
    },
    {
      "bufferView": 0,
      "byteOffset": 399960,
      "componentType": 5125,
      "count": 110292,
      "type": "SCALAR"
    },
    {
      "bufferView": 2,
      "byteOffset": 1581264,
      "componentType": 5126,
      "count": 22,
      "max": [
        1.1662700176239014,
        3.2522900104522705,
        -4.873000144958496
      ],
      "min": [
        0.2920120060443878,
        1.48294997215271,
        -5.847949981689453
      ],
      "type": "VEC3"
    },
    {
      "bufferView": 2,
      "byteOffset": 1581528,
      "componentType": 5126,
      "count": 22,
      "max": [
        1.0,
        0.0,
        1.0
      ],
      "min": [
        -1.0,
        0.0,
        -1.0
      ],
      "type": "VEC3"
    },
    {
      "bufferView": 1,
      "byteOffset": 527088,
      "componentType": 5126,
      "count": 22,
      "max": [
        0.7922629714012146,
        0.531486988067627
      ],
      "min": [
        0.7081869840621948,
        0.3613330125808716
      ],
      "type": "VEC2"
    },
    {
      "bufferView": 0,
      "byteOffset": 841128,
      "componentType": 5125,
      "count": 30,
      "type": "SCALAR"
    },
    {
      "bufferView": 2,
      "byteOffset": 1581792,
      "componentType": 5126,
      "count": 1899,
      "max": [
        1.2314399480819702,
        1.0297800302505493,
        3.9955599308013916
      ],
      "min": [
        -1.2314399480819702,
        0.0029213419184088707,
        -3.1058998107910156
      ],
      "type": "VEC3"
    },
    {
      "bufferView": 2,
      "byteOffset": 1604580,
      "componentType": 5126,
      "count": 1899,
      "max": [
        1.0,
        0.9658153057098389,
        0.9606232643127441
      ],
      "min": [
        -1.0,
        -0.9658902287483215,
        -0.9606156349182129
      ],
      "type": "VEC3"
    },
    {
      "bufferView": 1,
      "byteOffset": 527264,
      "componentType": 5126,
      "count": 1899,
      "max": [
        0.8497830033302307,
        0.922307014465332
      ],
      "min": [
        0.6132959723472595,
        0.8289399743080139
      ],
      "type": "VEC2"
    },
    {
      "bufferView": 0,
      "byteOffset": 841248,
      "componentType": 5125,
      "count": 7635,
      "type": "SCALAR"
    },
    {
      "bufferView": 2,
      "byteOffset": 1627368,
      "componentType": 5126,
      "count": 818,
      "max": [
        1.2009899616241455,
        3.38962984085083,
        2.8832499980926514
      ],
      "min": [
        -1.2009899616241455,
        3.1748499870300293,
        -3.312069892883301
      ],
      "type": "VEC3"
    },
    {
      "bufferView": 2,
      "byteOffset": 1637184,
      "componentType": 5126,
      "count": 818,
      "max": [
        1.0,
        0.976526141166687,
        0.8944333791732788
      ],
      "min": [
        -1.0,
        -1.0,
        -0.815464198589325
      ],
      "type": "VEC3"
    },
    {
      "bufferView": 1,
      "byteOffset": 542456,
      "componentType": 5126,
      "count": 818,
      "max": [
        0.6755489706993103,
        0.9694179892539978
      ],
      "min": [
        0.3317280113697052,
        0.36053600907325745
      ],
      "type": "VEC2"
    },
    {
      "bufferView": 0,
      "byteOffset": 871788,
      "componentType": 5125,
      "count": 3216,
      "type": "SCALAR"
    },
    {
      "bufferView": 2,
      "byteOffset": 1647000,
      "componentType": 5126,
      "count": 1108,
      "max": [
        0.626230001449585,
        0.4323210120201111,
        -4.494760036468506
      ],
      "min": [
        -0.626230001449585,
        0.17692600190639496,
        -6.247729778289795
      ],
      "type": "VEC3"
    },
    {
      "bufferView": 2,
      "byteOffset": 1660296,
      "componentType": 5126,
      "count": 1108,
      "max": [
        1.0,
        1.0,
        1.0
      ],
      "min": [
        -1.0,
        -1.0,
        -1.0
      ],
      "type": "VEC3"
    },
    {
      "bufferView": 1,
      "byteOffset": 549000,
      "componentType": 5126,
      "count": 1108,
      "max": [
        0.9018769860267639,
        0.583433985710144
      ],
      "min": [
        0.8341040015220642,
        0.5696139931678772
      ],
      "type": "VEC2"
    },
    {
      "bufferView": 0,
      "byteOffset": 884652,
      "componentType": 5125,
      "count": 1806,
      "type": "SCALAR"
    },
    {
      "bufferView": 2,
      "byteOffset": 1673592,
      "componentType": 5126,
      "count": 756,
      "max": [
        1.1646499633789063,
        2.180229902267456,
        5.839159965515137
      ],
      "min": [
        -1.1646499633789063,
        0.48626798391342163,
        -6.206589698791504
      ],
      "type": "VEC3"
    },
    {
      "bufferView": 2,
      "byteOffset": 1682664,
      "componentType": 5126,
      "count": 756,
      "max": [
        0.9967737197875977,
        1.0,
        1.0
      ],
      "min": [
        -0.9967737197875977,
        -1.0,
        -1.0
      ],
      "type": "VEC3"
    },
    {
      "bufferView": 1,
      "byteOffset": 557864,
      "componentType": 5126,
      "count": 756,
      "max": [
        0.955826997756958,
        0.8636680245399475
      ],
      "min": [
        0.8000220060348511,
        0.5718430280685425
      ],
      "type": "VEC2"
    },
    {
      "bufferView": 0,
      "byteOffset": 891876,
      "componentType": 5125,
      "count": 1866,
      "type": "SCALAR"
    },
    {
      "bufferView": 2,
      "byteOffset": 1691736,
      "componentType": 5126,
      "count": 202,
      "max": [
        1.1891599893569946,
        2.0930001735687256,
        4.233609676361084
      ],
      "min": [
        -1.2016099691390991,
        1.5610899925231934,
        4.04665994644165
      ],
      "type": "VEC3"
    },
    {
      "bufferView": 2,
      "byteOffset": 1694160,
      "componentType": 5126,
      "count": 202,
      "max": [
        0.9260492920875549,
        1.0,
        0.9274735450744629
      ],
      "min": [
        -0.9260492920875549,
        -1.0,
        -0.9274735450744629
      ],
      "type": "VEC3"
    },
    {
      "bufferView": 1,
      "byteOffset": 563912,
      "componentType": 5126,
      "count": 202,
      "max": [
        0.7657269835472107,
        0.5402249693870544
      ],
      "min": [
        0.7183979749679565,
        0.40556401014328003
      ],
      "type": "VEC2"
    },
    {
      "bufferView": 0,
      "byteOffset": 899340,
      "componentType": 5125,
      "count": 480,
      "type": "SCALAR"
    },
    {
      "bufferView": 2,
      "byteOffset": 1696584,
      "componentType": 5126,
      "count": 163,
      "max": [
        -0.6554620265960693,
        3.4651598930358887,
        -5.306989669799805
      ],
      "min": [
        -0.884522020816803,
        3.255079984664917,
        -5.791899681091309
      ],
      "type": "VEC3"
    },
    {
      "bufferView": 2,
      "byteOffset": 1698540,
      "componentType": 5126,
      "count": 163,
      "max": [
        1.0,
        0.9999288320541382,
        1.0
      ],
      "min": [
        -1.0,
        -0.9999517202377319,
        -1.0
      ],
      "type": "VEC3"
    },
    {
      "bufferView": 1,
      "byteOffset": 565528,
      "componentType": 5126,
      "count": 163,
      "max": [
        0.8160380125045776,
        0.9871180057525635
      ],
      "min": [
        0.7695590257644653,
        0.9481170177459717
      ],
      "type": "VEC2"
    },
    {
      "bufferView": 0,
      "byteOffset": 901260,
      "componentType": 5125,
      "count": 276,
      "type": "SCALAR"
    },
    {
      "bufferView": 2,
      "byteOffset": 1700496,
      "componentType": 5126,
      "count": 116,
      "max": [
        1.2215700149536133,
        2.0563900470733643,
        -5.934539794921875
      ],
      "min": [
        -1.2215700149536133,
        0.5763580203056335,
        -6.1394500732421875
      ],
      "type": "VEC3"
    },
    {
      "bufferView": 2,
      "byteOffset": 1701888,
      "componentType": 5126,
      "count": 116,
      "max": [
        0.7662163376808167,
        0.022859016433358192,
        -0.6425828337669373
      ],
      "min": [
        -0.7662163376808167,
        -0.013428393751382828,
        -0.9638993740081787
      ],
      "type": "VEC3"
    },
    {
      "bufferView": 1,
      "byteOffset": 566832,
      "componentType": 5126,
      "count": 116,
      "max": [
        0.6486430168151855,
        0.9067990183830261
      ],
      "min": [
        0.026743169873952866,
        0.06145327910780907
      ],
      "type": "VEC2"
    },
    {
      "bufferView": 0,
      "byteOffset": 902364,
      "componentType": 5125,
      "count": 330,
      "type": "SCALAR"
    },
    {
      "bufferView": 2,
      "byteOffset": 1703280,
      "componentType": 5126,
      "count": 52,
      "max": [
        1.2395999431610107,
        1.0876799821853638,
        5.771599769592285
      ],
      "min": [
        -1.2395999431610107,
        0.7275899648666382,
        5.479949951171875
      ],
      "type": "VEC3"
    },
    {
      "bufferView": 2,
      "byteOffset": 1703904,
      "componentType": 5126,
      "count": 52,
      "max": [
        0.9724408388137817,
        0.007141349837183952,
        0.9841944575309753
      ],
      "min": [
        -0.9724408388137817,
        -0.041903186589479446,
        0.22935357689857483
      ],
      "type": "VEC3"
    },
    {
      "bufferView": 1,
      "byteOffset": 567760,
      "componentType": 5126,
      "count": 52,
      "max": [
        0.7384970188140869,
        0.6400150060653687
      ],
      "min": [
        0.26624101400375366,
        0.3167699873447418
      ],
      "type": "VEC2"
    },
    {
      "bufferView": 0,
      "byteOffset": 903684,
      "componentType": 5125,
      "count": 144,
      "type": "SCALAR"
    },
    {
      "bufferView": 2,
      "byteOffset": 1704528,
      "componentType": 5126,
      "count": 344,
      "max": [
        1.0519499778747559,
        1.5002399682998657,
        4.850820064544678
      ],
      "min": [
        0.5997819900512695,
        1.4025700092315674,
        4.501140117645264
      ],
      "type": "VEC3"
    },
    {
      "bufferView": 2,
      "byteOffset": 1708656,
      "componentType": 5126,
      "count": 344,
      "max": [
        1.0,
        1.0,
        1.0
      ],
      "min": [
        -1.0,
        -1.0,
        -1.0
      ],
      "type": "VEC3"
    },
    {
      "bufferView": 1,
      "byteOffset": 568176,
      "componentType": 5126,
      "count": 344,
      "max": [
        0.8920519948005676,
        0.9667230248451233
      ],
      "min": [
        -0.002271293895319104,
        0.6992299556732178
      ],
      "type": "VEC2"
    },
    {
      "bufferView": 0,
      "byteOffset": 904260,
      "componentType": 5125,
      "count": 894,
      "type": "SCALAR"
    },
    {
      "bufferView": 2,
      "byteOffset": 1712784,
      "componentType": 5126,
      "count": 304,
      "max": [
        1.1913800239562988,
        1.0576199293136597,
        4.08165979385376
      ],
      "min": [
        -1.1913800239562988,
        -0.03473227843642235,
        -3.2681899070739746
      ],
      "type": "VEC3"
    },
    {
      "bufferView": 2,
      "byteOffset": 1716432,
      "componentType": 5126,
      "count": 304,
      "max": [
        1.1215503192829601e-08,
        0.5646751523017883,
        1.0
      ],
      "min": [
        -1.1215503192829601e-08,
        -1.0,
        -1.0
      ],
      "type": "VEC3"
    },
    {
      "bufferView": 1,
      "byteOffset": 570928,
      "componentType": 5126,
      "count": 304,
      "max": [
        0.9920629858970642,
        0.9680240154266357
      ],
      "min": [
        0.9163380265235901,
        0.8034150004386902
      ],
      "type": "VEC2"
    },
    {
      "bufferView": 0,
      "byteOffset": 907836,
      "componentType": 5125,
      "count": 672,
      "type": "SCALAR"
    },
    {
      "bufferView": 2,
      "byteOffset": 1720080,
      "componentType": 5126,
      "count": 8534,
      "max": [
        1.2394899129867554,
        0.8260179758071899,
        3.794609785079956
      ],
      "min": [
        -1.2394899129867554,
        0.20742999017238617,
        -2.894670009613037
      ],
      "type": "VEC3"
    },
    {
      "bufferView": 2,
      "byteOffset": 1822488,
      "componentType": 5126,
      "count": 8534,
      "max": [
        1.0,
        1.0,
        1.0
      ],
      "min": [
        -1.0,
        -1.0,
        -1.0
      ],
      "type": "VEC3"
    },
    {
      "bufferView": 1,
      "byteOffset": 573360,
      "componentType": 5126,
      "count": 8534,
      "max": [
        0.6257380247116089,
        0.9287269711494446
      ],
      "min": [
        0.5398929715156555,
        0.8070319890975952
      ],
      "type": "VEC2"
    },
    {
      "bufferView": 0,
      "byteOffset": 910524,
      "componentType": 5125,
      "count": 20139,
      "type": "SCALAR"
    },
    {
      "bufferView": 2,
      "byteOffset": 1924896,
      "componentType": 5126,
      "count": 145,
      "max": [
        0.6284019947052002,
        1.0975499153137207,
        5.825009822845459
      ],
      "min": [
        -0.6284019947052002,
        0.44987499713897705,
        5.749399662017822
      ],
      "type": "VEC3"
    },
    {
      "bufferView": 2,
      "byteOffset": 1926636,
      "componentType": 5126,
      "count": 145,
      "max": [
        0.12433523684740067,
        0.01229927595704794,
        1.0
      ],
      "min": [
        -0.12433523684740067,
        -0.02960386872291565,
        0.9922403693199158
      ],
      "type": "VEC3"
    },
    {
      "bufferView": 1,
      "byteOffset": 641632,
      "componentType": 5126,
      "count": 145,
      "max": [
        0.6140210032463074,
        0.24409200251102448
      ],
      "min": [
        0.3144170045852661,
        0.06587707251310349
      ],
      "type": "VEC2"
    },
    {
      "bufferView": 0,
      "byteOffset": 991080,
      "componentType": 5125,
      "count": 276,
      "type": "SCALAR"
    },
    {
      "bufferView": 2,
      "byteOffset": 1928376,
      "componentType": 5126,
      "count": 721,
      "max": [
        1.1906299591064453,
        2.4394400119781494,
        5.502799987792969
      ],
      "min": [
        -1.191349983215332,
        0.3593289852142334,
        -6.001729965209961
      ],
      "type": "VEC3"
    },
    {
      "bufferView": 2,
      "byteOffset": 1937028,
      "componentType": 5126,
      "count": 721,
      "max": [
        1.0,
        1.0,
        1.0
      ],
      "min": [
        -0.9369282126426697,
        -1.0,
        -1.0
      ],
      "type": "VEC3"
    },
    {
      "bufferView": 1,
      "byteOffset": 642792,
      "componentType": 5126,
      "count": 721,
      "max": [
        0.981024980545044,
        0.9879710078239441
      ],
      "min": [
        0.21984799206256866,
        0.32406601309776306
      ],
      "type": "VEC2"
    },
    {
      "bufferView": 0,
      "byteOffset": 992184,
      "componentType": 5125,
      "count": 1146,
      "type": "SCALAR"
    },
    {
      "bufferView": 2,
      "byteOffset": 1945680,
      "componentType": 5126,
      "count": 2520,
      "max": [
        1.2320001125335693,
        3.236680030822754,
        2.846359968185425
      ],
      "min": [
        -1.227829933166504,
        2.1599998474121094,
        -3.415519952774048
      ],
      "type": "VEC3"
    },
    {
      "bufferView": 2,
      "byteOffset": 1975920,
      "componentType": 5126,
      "count": 2520,
      "max": [
        0.8111061453819275,
        0.15386289358139038,
        0.8733781576156616
      ],
      "min": [
        -0.8110035061836243,
        -0.15386590361595154,
        -0.8733773231506348
      ],
      "type": "VEC3"
    },
    {
      "bufferView": 1,
      "byteOffset": 648560,
      "componentType": 5126,
      "count": 2520,
      "max": [
        3.2621798515319824,
        0.9885759949684143
      ],
      "min": [
        0.02496867999434471,
        0.4184260070323944
      ],
      "type": "VEC2"
    },
    {
      "bufferView": 0,
      "byteOffset": 996768,
      "componentType": 5125,
      "count": 2520,
      "type": "SCALAR"
    },
    {
      "bufferView": 2,
      "byteOffset": 2006160,
      "componentType": 5126,
      "count": 800,
      "max": [
        1.1918299198150635,
        1.4213500022888184,
        5.695940017700195
      ],
      "min": [
        -1.2108500003814697,
        0.3926909863948822,
        5.122349739074707
      ],
      "type": "VEC3"
    },
    {
      "bufferView": 2,
      "byteOffset": 2015760,
      "componentType": 5126,
      "count": 800,
      "max": [
        1.0,
        0.9999980926513672,
        1.0
      ],
      "min": [
        -1.0,
        -0.9999980926513672,
        -1.0
      ],
      "type": "VEC3"
    },
    {
      "bufferView": 1,
      "byteOffset": 668720,
      "componentType": 5126,
      "count": 800,
      "max": [
        0.6382489800453186,
        0.7604259848594666
      ],
      "min": [
        0.22171799838542938,
        0.32303500175476074
      ],
      "type": "VEC2"
    },
    {
      "bufferView": 0,
      "byteOffset": 1006848,
      "componentType": 5125,
      "count": 2946,
      "type": "SCALAR"
    },
    {
      "bufferView": 2,
      "byteOffset": 2025360,
      "componentType": 5126,
      "count": 1718,
      "max": [
        -0.3976219892501831,
        2.189069986343384,
        4.919719696044922
      ],
      "min": [
        -1.0044599771499634,
        0.9882069826126099,
        4.260059833526611
      ],
      "type": "VEC3"
    },
    {
      "bufferView": 2,
      "byteOffset": 2045976,
      "componentType": 5126,
      "count": 1718,
      "max": [
        0.9999977350234985,
        1.0,
        0.9999960660934448
      ],
      "min": [
        -0.999997615814209,
        -0.9633879661560059,
        -0.9999973773956299
      ],
      "type": "VEC3"
    },
    {
      "bufferView": 1,
      "byteOffset": 675120,
      "componentType": 5126,
      "count": 1718,
      "max": [
        0.715565025806427,
        0.9879570007324219
      ],
      "min": [
        0.008038877509534359,
        0.5159299969673157
      ],
      "type": "VEC2"
    },
    {
      "bufferView": 0,
      "byteOffset": 1018632,
      "componentType": 5125,
      "count": 6882,
      "type": "SCALAR"
    }
  ],
  "asset": {
    "extras": {
      "author": "Aditya Graphical (https://sketchfab.com/Adityakm)",
      "license": "CC-BY-4.0 (http://creativecommons.org/licenses/by/4.0/)",
      "source": "https://sketchfab.com/3d-models/indonesia-ecolin-bus-08d4c1b35f82404e9f6b50e970baadb9",
      "title": "Indonesia Ecolin Bus"
    },
    "generator": "Sketchfab-12.68.0",
    "version": "2.0"
  },
  "bufferViews": [
    {
      "buffer": 0,
      "byteLength": 1046160,
      "name": "floatBufferViews",
      "target": 34963
    },
    {
      "buffer": 0,
      "byteLength": 688864,
      "byteOffset": 1046160,
      "byteStride": 8,
      "name": "floatBufferViews",
      "target": 34962
    },
    {
      "buffer": 0,
      "byteLength": 2066592,
      "byteOffset": 1735024,
      "byteStride": 12,
      "name": "floatBufferViews",
      "target": 34962
    }
  ],
  "buffers": [
    {
      "byteLength": 3801616,
      "uri": "scene.bin"
    }
  ],
  "images": [
    {
      "uri": "textures/LAMPU_ECOLINE_baseColor.png"
    },
    {
      "uri": "textures/inter_baseColor.png"
    },
    {
      "uri": "textures/bodi3_baseColor.png"
    }
  ],
  "materials": [
    {
      "doubleSided": true,
      "name": "hitam_abu",
      "pbrMetallicRoughness": {
        "baseColorFactor": [
          0.0578026,
          0.0578026,
          0.0578026,
          1.0
        ],
        "metallicFactor": 0.0,
        "roughnessFactor": 0.9119708628730714
      }
    },
    {
      "doubleSided": true,
      "name": "kaca",
      "pbrMetallicRoughness": {
        "baseColorFactor": [
          0.137349,
          0.137349,
          0.137349,
          1.0
        ],
        "metallicFactor": 0.0,
        "roughnessFactor": 0.9119708628730714
      }
    },
    {
      "doubleSided": true,
      "name": "LAMPU_ECOLINE",
      "pbrMetallicRoughness": {
        "baseColorTexture": {
          "index": 0
        },
        "metallicFactor": 0.0,
        "roughnessFactor": 0.9119708628730714
      }
    },
    {
      "doubleSided": true,
      "name": "hitam",
      "pbrMetallicRoughness": {
        "baseColorFactor": [
          0.0146695,
          0.0146695,
          0.0146695,
          1.0
        ],
        "metallicFactor": 0.0,
        "roughnessFactor": 0.9119708628730714
      }
    },
    {
      "doubleSided": true,
      "name": "inter",
      "pbrMetallicRoughness": {
        "baseColorTexture": {
          "index": 1
        },
        "metallicFactor": 0.0,
        "roughnessFactor": 0.9119708628730714
      }
    },
    {
      "doubleSided": true,
      "name": "putih",
      "pbrMetallicRoughness": {
        "metallicFactor": 0.0,
        "roughnessFactor": 0.9119708628730714
      }
    },
    {
      "doubleSided": true,
      "name": "bodi3",
      "pbrMetallicRoughness": {
        "baseColorTexture": {
          "index": 2
        },
        "metallicFactor": 0.0,
        "roughnessFactor": 0.9119708628730714
      }
    },
    {
      "doubleSided": true,
      "name": "bodi",
      "pbrMetallicRoughness": {
        "baseColorFactor": [
          0.125824,
          0.0805812,
          0.149095,
          1.0
        ],
        "metallicFactor": 0.0,
        "roughnessFactor": 0.8239417257461427
      }
    }
  ],
  "meshes": [
    {
      "name": "kumis_hitam_abu_0",
      "primitives": [
        {
          "attributes": {
            "NORMAL": 1,
            "POSITION": 0,
            "TEXCOORD_0": 2
          },
          "indices": 3,
          "material": 0,
          "mode": 4
        }
      ]
    },
    {
      "name": "kaca_kaca_0",
      "primitives": [
        {
          "attributes": {
            "NORMAL": 5,
            "POSITION": 4,
            "TEXCOORD_0": 6
          },
          "indices": 7,
          "material": 1,
          "mode": 4
        }
      ]
    },
    {
      "name": "plat_hitam_abu_0",
      "primitives": [
        {
          "attributes": {
            "NORMAL": 9,
            "POSITION": 8,
            "TEXCOORD_0": 10
          },
          "indices": 11,
          "material": 0,
          "mode": 4
        }
      ]
    },
    {
      "name": "lampu_sein_LAMPU ECOLINE_0",
      "primitives": [
        {
          "attributes": {
            "NORMAL": 13,
            "POSITION": 12,
            "TEXCOORD_0": 14
          },
          "indices": 15,
          "material": 2,
          "mode": 4
        }
      ]
    },
    {
      "name": "tangga_hitam_0",
      "primitives": [
        {
          "attributes": {
            "NORMAL": 17,
            "POSITION": 16,
            "TEXCOORD_0": 18
          },
          "indices": 19,
          "material": 3,
          "mode": 4
        }
      ]
    },
    {
      "name": "dek_inter_0",
      "primitives": [
        {
          "attributes": {
            "NORMAL": 21,
            "POSITION": 20,
            "TEXCOORD_0": 22
          },
          "indices": 23,
          "material": 4,
          "mode": 4
        }
      ]
    },
    {
      "name": "lis_hitam_0",
      "primitives": [
        {
          "attributes": {
            "NORMAL": 25,
            "POSITION": 24,
            "TEXCOORD_0": 26
          },
          "indices": 27,
          "material": 3,
          "mode": 4
        }
      ]
    },
    {
      "name": "knalpot_putih_0",
      "primitives": [
        {
          "attributes": {
            "NORMAL": 29,
            "POSITION": 28,
            "TEXCOORD_0": 30
          },
          "indices": 31,
          "material": 5,
          "mode": 4
        }
      ]
    },
    {
      "name": "kumis2_hitam_abu_0",
      "primitives": [
        {
          "attributes": {
            "NORMAL": 33,
            "POSITION": 32,
            "TEXCOORD_0": 34
          },
          "indices": 35,
          "material": 0,
          "mode": 4
        }
      ]
    },
    {
      "name": "krum_hitam_hitam_0",
      "primitives": [
        {
          "attributes": {
            "NORMAL": 37,
            "POSITION": 36,
            "TEXCOORD_0": 38
          },
          "indices": 39,
          "material": 3,
          "mode": 4
        }
      ]
    },
    {
      "name": "bokong_hitam_hitam_abu_0",
      "primitives": [
        {
          "attributes": {
            "NORMAL": 41,
            "POSITION": 40,
            "TEXCOORD_0": 42
          },
          "indices": 43,
          "material": 0,
          "mode": 4
        }
      ]
    },
    {
      "name": "daleman_inter_0",
      "primitives": [
        {
          "attributes": {
            "NORMAL": 45,
            "POSITION": 44,
            "TEXCOORD_0": 46
          },
          "indices": 47,
          "material": 4,
          "mode": 4
        }
      ]
    },
    {
      "name": "bodi_bodi3_0",
      "primitives": [
        {
          "attributes": {
            "NORMAL": 49,
            "POSITION": 48,
            "TEXCOORD_0": 50
          },
          "indices": 51,
          "material": 6,
          "mode": 4
        }
      ]
    },
    {
      "name": "wipper_hitam_0",
      "primitives": [
        {
          "attributes": {
            "NORMAL": 53,
            "POSITION": 52,
            "TEXCOORD_0": 54
          },
          "indices": 55,
          "material": 3,
          "mode": 4
        }
      ]
    },
    {
      "name": "apion_bodi3_0",
      "primitives": [
        {
          "attributes": {
            "NORMAL": 57,
            "POSITION": 56,
            "TEXCOORD_0": 58
          },
          "indices": 59,
          "material": 6,
          "mode": 4
        }
      ]
    },
    {
      "name": "ac_bodi3_0",
      "primitives": [
        {
          "attributes": {
            "NORMAL": 61,
            "POSITION": 60,
            "TEXCOORD_0": 62
          },
          "indices": 63,
          "material": 6,
          "mode": 4
        }
      ]
    },
    {
      "name": "kursi_inter_0",
      "primitives": [
        {
          "attributes": {
            "NORMAL": 65,
            "POSITION": 64,
            "TEXCOORD_0": 66
          },
          "indices": 67,
          "material": 4,
          "mode": 4
        }
      ]
    },
    {
      "name": "wc_inter_0",
      "primitives": [
        {
          "attributes": {
            "NORMAL": 69,
            "POSITION": 68,
            "TEXCOORD_0": 70
          },
          "indices": 71,
          "material": 4,
          "mode": 4
        }
      ]
    },
    {
      "name": "ban_hitam_abu_0",
      "primitives": [
        {
          "attributes": {
            "NORMAL": 73,
            "POSITION": 72,
            "TEXCOORD_0": 74
          },
          "indices": 75,
          "material": 0,
          "mode": 4
        }
      ]
    },
    {
      "name": "sayap_bodi3_0",
      "primitives": [
        {
          "attributes": {
            "NORMAL": 77,
            "POSITION": 76,
            "TEXCOORD_0": 78
          },
          "indices": 79,
          "material": 6,
          "mode": 4
        }
      ]
    },
    {
      "name": "slap_hitam_0",
      "primitives": [
        {
          "attributes": {
            "NORMAL": 81,
            "POSITION": 80,
            "TEXCOORD_0": 82
          },
          "indices": 83,
          "material": 3,
          "mode": 4
        }
      ]
    },
    {
      "name": "krum_putih_0",
      "primitives": [
        {
          "attributes": {
            "NORMAL": 85,
            "POSITION": 84,
            "TEXCOORD_0": 86
          },
          "indices": 87,
          "material": 5,
          "mode": 4
        }
      ]
    },
    {
      "name": "skat_inter_0",
      "primitives": [
        {
          "attributes": {
            "NORMAL": 89,
            "POSITION": 88,
            "TEXCOORD_0": 90
          },
          "indices": 91,
          "material": 4,
          "mode": 4
        }
      ]
    },
    {
      "name": "tapasap_bodi_0",
      "primitives": [
        {
          "attributes": {
            "NORMAL": 93,
            "POSITION": 92,
            "TEXCOORD_0": 94
          },
          "indices": 95,
          "material": 7,
          "mode": 4
        }
      ]
    },
    {
      "name": "lampu_blkng_LAMPU ECOLINE_0",
      "primitives": [
        {
          "attributes": {
            "NORMAL": 97,
            "POSITION": 96,
            "TEXCOORD_0": 98
          },
          "indices": 99,
          "material": 2,
          "mode": 4
        }
      ]
    },
    {
      "name": "lampu_depan_LAMPU ECOLINE_0",
      "primitives": [
        {
          "attributes": {
            "NORMAL": 101,
            "POSITION": 100,
            "TEXCOORD_0": 102
          },
          "indices": 103,
          "material": 2,
          "mode": 4
        }
      ]
    },
    {
      "name": "kursi_kernet_inter_0",
      "primitives": [
        {
          "attributes": {
            "NORMAL": 105,
            "POSITION": 104,
            "TEXCOORD_0": 106
          },
          "indices": 107,
          "material": 4,
          "mode": 4
        }
      ]
    },
    {
      "name": "slebor_hitam_0",
      "primitives": [
        {
          "attributes": {
            "NORMAL": 109,
            "POSITION": 108,
            "TEXCOORD_0": 110
          },
          "indices": 111,
          "material": 3,
          "mode": 4
        }
      ]
    },
    {
      "name": "pelek_putih_0",
      "primitives": [
        {
          "attributes": {
            "NORMAL": 113,
            "POSITION": 112,
            "TEXCOORD_0": 114
          },
          "indices": 115,
          "material": 5,
          "mode": 4
        }
      ]
    },
    {
      "name": "hitam_hitam_0",
      "primitives": [
        {
          "attributes": {
            "NORMAL": 117,
            "POSITION": 116,
            "TEXCOORD_0": 118
          },
          "indices": 119,
          "material": 3,
          "mode": 4
        }
      ]
    },
    {
      "name": "lantai_inter_0",
      "primitives": [
        {
          "attributes": {
            "NORMAL": 121,
            "POSITION": 120,
            "TEXCOORD_0": 122
          },
          "indices": 123,
          "material": 4,
          "mode": 4
        }
      ]
    },
    {
      "name": "gorden_inter_0",
      "primitives": [
        {
          "attributes": {
            "NORMAL": 125,
            "POSITION": 124,
            "TEXCOORD_0": 126
          },
          "indices": 127,
          "material": 4,
          "mode": 4
        }
      ]
    },
    {
      "name": "dasbor_inter_0",
      "primitives": [
        {
          "attributes": {
            "NORMAL": 129,
            "POSITION": 128,
            "TEXCOORD_0": 130
          },
          "indices": 131,
          "material": 4,
          "mode": 4
        }
      ]
    },
    {
      "name": "kursi_supir_inter_0",
      "primitives": [
        {
          "attributes": {
            "NORMAL": 133,
            "POSITION": 132,
            "TEXCOORD_0": 134
          },
          "indices": 135,
          "material": 4,
          "mode": 4
        }
      ]
    }
  ],
  "nodes": [
    {
      "children": [
        1
      ],
      "matrix": [
        1.0,
        0.0,
        0.0,
        0.0,
        0.0,
        2.220446049250313e-16,
        -1.0,
        0.0,
        0.0,
        1.0,
        2.220446049250313e-16,
        0.0,
        0.0,
        0.0,
        0.0,
        1.0
      ],
      "name": "Sketchfab_model"
    },
    {
      "children": [
        2
      ],
      "matrix": [
        0.009999999776482582,
        0.0,
        0.0,
        0.0,
        0.0,
        0.0,
        0.009999999776482582,
        0.0,
        0.0,
        -0.009999999776482582,
        0.0,
        0.0,
        0.0,
        0.0,
        0.0,
        1.0
      ],
      "name": "BUS_ECOLINE.fbx"
    },
    {
      "children": [
        3,
        5,
        7,
        9,
        11,
        13,
        15,
        17,
        19,
        21,
        23,
        25,
        27,
        29,
        31,
        33,
        35,
        37,
        39,
        41,
        43,
        45,
        47,
        49,
        51,
        53,
        55,
        57,
        59,
        61,
        63,
        65,
        67,
        69,
        71,
        74,
        77,
        80
      ],
      "name": "RootNode"
    },
    {
      "children": [
        4
      ],
      "matrix": [
        100.0,
        0.0,
        0.0,
        0.0,
        0.0,
        99.99999999999866,
        1.6292067073209114e-05,
        0.0,
        0.0,
        -1.6292067073209114e-05,
        99.99999999999866,
        0.0,
        0.0,
        0.0,
        0.0,
        1.0
      ],
      "name": "kumis"
    },
    {
      "mesh": 0,
      "name": "kumis_hitam_abu_0"
    },
    {
      "children": [
        6
      ],
      "matrix": [
        100.0,
        0.0,
        0.0,
        0.0,
        0.0,
        99.99999999999866,
        1.6292067073209114e-05,
        0.0,
        0.0,
        -1.6292067073209114e-05,
        99.99999999999866,
        0.0,
        0.0,
        0.0,
        0.0,
        1.0
      ],
      "name": "kaca"
    },
    {
      "mesh": 1,
      "name": "kaca_kaca_0"
    },
    {
      "children": [
        8
      ],
      "matrix": [
        100.0,
        0.0,
        0.0,
        0.0,
        0.0,
        99.99999999999866,
        1.6292067073209114e-05,
        0.0,
        0.0,
        -1.6292067073209114e-05,
        99.99999999999866,
        0.0,
        0.0,
        0.0,
        0.0,
        1.0
      ],
      "name": "plat"
    },
    {
      "mesh": 2,
      "name": "plat_hitam_abu_0"
    },
    {
      "children": [
        10
      ],
      "matrix": [
        100.0,
        0.0,
        0.0,
        0.0,
        0.0,
        99.99999999999866,
        1.6292067073209114e-05,
        0.0,
        0.0,
        -1.6292067073209114e-05,
        99.99999999999866,
        0.0,
        0.0,
        0.0,
        0.0,
        1.0
      ],
      "name": "lampu_sein"
    },
    {
      "mesh": 3,
      "name": "lampu_sein_LAMPU ECOLINE_0"
    },
    {
      "children": [
        12
      ],
      "matrix": [
        100.0,
        0.0,
        0.0,
        0.0,
        0.0,
        99.99999999999866,
        1.6292067073209114e-05,
        0.0,
        0.0,
        -1.6292067073209114e-05,
        99.99999999999866,
        0.0,
        0.0,
        0.0,
        0.0,
        1.0
      ],
      "name": "tangga"
    },
    {
      "mesh": 4,
      "name": "tangga_hitam_0"
    },
    {
      "children": [
        14
      ],
      "matrix": [
        100.0,
        0.0,
        0.0,
        0.0,
        0.0,
        99.99999999999866,
        1.6292067073209114e-05,
        0.0,
        0.0,
        -1.6292067073209114e-05,
        99.99999999999866,
        0.0,
        0.0,
        0.0,
        0.0,
        1.0
      ],
      "name": "dek"
    },
    {
      "mesh": 5,
      "name": "dek_inter_0"
    },
    {
      "children": [
        16
      ],
      "matrix": [
        100.0,
        0.0,
        0.0,
        0.0,
        0.0,
        99.99999999999866,
        1.6292067073209114e-05,
        0.0,
        0.0,
        -1.6292067073209114e-05,
        99.99999999999866,
        0.0,
        0.0,
        0.0,
        0.0,
        1.0
      ],
      "name": "lis"
    },
    {
      "mesh": 6,
      "name": "lis_hitam_0"
    },
    {
      "children": [
        18
      ],
      "matrix": [
        100.0,
        0.0,
        0.0,
        0.0,
        0.0,
        99.99999999999866,
        1.6292067073209114e-05,
        0.0,
        0.0,
        -1.6292067073209114e-05,
        99.99999999999866,
        0.0,
        0.0,
        0.0,
        0.0,
        1.0
      ],
      "name": "knalpot"
    },
    {
      "mesh": 7,
      "name": "knalpot_putih_0"
    },
    {
      "children": [
        20
      ],
      "matrix": [
        100.0,
        0.0,
        0.0,
        0.0,
        0.0,
        99.99999999999866,
        1.6292067073209114e-05,
        0.0,
        0.0,
        -1.6292067073209114e-05,
        99.99999999999866,
        0.0,
        0.0,
        0.0,
        0.0,
        1.0
      ],
      "name": "kumis2"
    },
    {
      "mesh": 8,
      "name": "kumis2_hitam_abu_0"
    },
    {
      "children": [
        22
      ],
      "matrix": [
        100.0,
        0.0,
        0.0,
        0.0,
        0.0,
        99.99999999999866,
        1.6292067073209114e-05,
        0.0,
        0.0,
        -1.6292067073209114e-05,
        99.99999999999866,
        0.0,
        0.0,
        0.0,
        0.0,
        1.0
      ],
      "name": "krum_hitam"
    },
    {
      "mesh": 9,
      "name": "krum_hitam_hitam_0"
    },
    {
      "children": [
        24
      ],
      "matrix": [
        100.0,
        0.0,
        0.0,
        0.0,
        0.0,
        99.99999999999866,
        1.6292067073209114e-05,
        0.0,
        0.0,
        -1.6292067073209114e-05,
        99.99999999999866,
        0.0,
        0.0,
        0.0,
        0.0,
        1.0
      ],
      "name": "bokong_hitam"
    },
    {
      "mesh": 10,
      "name": "bokong_hitam_hitam_abu_0"
    },
    {
      "children": [
        26
      ],
      "matrix": [
        100.0,
        0.0,
        0.0,
        0.0,
        0.0,
        99.99999999999866,
        1.6292067073209114e-05,
        0.0,
        0.0,
        -1.6292067073209114e-05,
        99.99999999999866,
        0.0,
        0.0,
        0.0,
        0.0,
        1.0
      ],
      "name": "daleman"
    },
    {
      "mesh": 11,
      "name": "daleman_inter_0"
    },
    {
      "children": [
        28
      ],
      "matrix": [
        100.0,
        0.0,
        0.0,
        0.0,
        0.0,
        99.99999999999866,
        1.6292067073209114e-05,
        0.0,
        0.0,
        -1.6292067073209114e-05,
        99.99999999999866,
        0.0,
        0.0,
        0.0,
        0.0,
        1.0
      ],
      "name": "bodi"
    },
    {
      "mesh": 12,
      "name": "bodi_bodi3_0"
    },
    {
      "children": [
        30
      ],
      "matrix": [
        100.0,
        0.0,
        0.0,
        0.0,
        0.0,
        99.99999999999866,
        1.6292067073209114e-05,
        0.0,
        0.0,
        -1.6292067073209114e-05,
        99.99999999999866,
        0.0,
        0.0,
        0.0,
        0.0,
        1.0
      ],
      "name": "wipper"
    },
    {
      "mesh": 13,
      "name": "wipper_hitam_0"
    },
    {
      "children": [
        32
      ],
      "matrix": [
        100.0,
        0.0,
        0.0,
        0.0,
        0.0,
        99.99999999999866,
        1.6292067073209114e-05,
        0.0,
        0.0,
        -1.6292067073209114e-05,
        99.99999999999866,
        0.0,
        0.0,
        0.0,
        0.0,
        1.0
      ],
      "name": "apion"
    },
    {
      "mesh": 14,
      "name": "apion_bodi3_0"
    },
    {
      "children": [
        34
      ],
      "matrix": [
        100.0,
        0.0,
        0.0,
        0.0,
        0.0,
        99.99999999999866,
        1.6292067073209114e-05,
        0.0,
        0.0,
        -1.6292067073209114e-05,
        99.99999999999866,
        0.0,
        0.0,
        0.0,
        0.0,
        1.0
      ],
      "name": "ac"
    },
    {
      "mesh": 15,
      "name": "ac_bodi3_0"
    },
    {
      "children": [
        36
      ],
      "matrix": [
        100.0,
        0.0,
        0.0,
        0.0,
        0.0,
        99.99999999999866,
        1.6292067073209114e-05,
        0.0,
        0.0,
        -1.6292067073209114e-05,
        99.99999999999866,
        0.0,
        0.0,
        0.0,
        0.0,
        1.0
      ],
      "name": "kursi"
    },
    {
      "mesh": 16,
      "name": "kursi_inter_0"
    },
    {
      "children": [
        38
      ],
      "matrix": [
        100.0,
        0.0,
        0.0,
        0.0,
        0.0,
        99.99999999999866,
        1.6292067073209114e-05,
        0.0,
        0.0,
        -1.6292067073209114e-05,
        99.99999999999866,
        0.0,
        0.0,
        0.0,
        0.0,
        1.0
      ],
      "name": "wc"
    },
    {
      "mesh": 17,
      "name": "wc_inter_0"
    },
    {
      "children": [
        40
      ],
      "matrix": [
        100.0,
        0.0,
        0.0,
        0.0,
        0.0,
        99.99999999999866,
        1.6292067073209114e-05,
        0.0,
        0.0,
        -1.6292067073209114e-05,
        99.99999999999866,
        0.0,
        0.0,
        0.0,
        0.0,
        1.0
      ],
      "name": "ban"
    },
    {
      "mesh": 18,
      "name": "ban_hitam_abu_0"
    },
    {
      "children": [
        42
      ],
      "matrix": [
        100.0,
        0.0,
        0.0,
        0.0,
        0.0,
        99.99999999999866,
        1.6292067073209114e-05,
        0.0,
        0.0,
        -1.6292067073209114e-05,
        99.99999999999866,
        0.0,
        0.0,
        0.0,
        0.0,
        1.0
      ],
      "name": "sayap"
    },
    {
      "mesh": 19,
      "name": "sayap_bodi3_0"
    },
    {
      "children": [
        44
      ],
      "matrix": [
        100.0,
        0.0,
        0.0,
        0.0,
        0.0,
        99.99999999999866,
        1.6292067073209114e-05,
        0.0,
        0.0,
        -1.6292067073209114e-05,
        99.99999999999866,
        0.0,
        0.0,
        0.0,
        0.0,
        1.0
      ],
      "name": "slap"
    },
    {
      "mesh": 20,
      "name": "slap_hitam_0"
    },
    {
      "children": [
        46
      ],
      "matrix": [
        100.0,
        0.0,
        0.0,
        0.0,
        0.0,
        99.99999999999866,
        1.6292067073209114e-05,
        0.0,
        0.0,
        -1.6292067073209114e-05,
        99.99999999999866,
        0.0,
        0.0,
        0.0,
        0.0,
        1.0
      ],
      "name": "krum"
    },
    {
      "mesh": 21,
      "name": "krum_putih_0"
    },
    {
      "children": [
        48
      ],
      "matrix": [
        100.0,
        0.0,
        0.0,
        0.0,
        0.0,
        99.99999999999866,
        1.6292067073209114e-05,
        0.0,
        0.0,
        -1.6292067073209114e-05,
        99.99999999999866,
        0.0,
        0.0,
        0.0,
        0.0,
        1.0
      ],
      "name": "skat"
    },
    {
      "mesh": 22,
      "name": "skat_inter_0"
    },
    {
      "children": [
        50
      ],
      "matrix": [
        100.0,
        0.0,
        0.0,
        0.0,
        0.0,
        99.99999999999866,
        1.6292067073209114e-05,
        0.0,
        0.0,
        -1.6292067073209114e-05,
        99.99999999999866,
        0.0,
        0.0,
        0.0,
        0.0,
        1.0
      ],
      "name": "tapasap"
    },
    {
      "mesh": 23,
      "name": "tapasap_bodi_0"
    },
    {
      "children": [
        52
      ],
      "matrix": [
        100.0,
        0.0,
        0.0,
        0.0,
        0.0,
        99.99999999999866,
        1.6292067073209114e-05,
        0.0,
        0.0,
        -1.6292067073209114e-05,
        99.99999999999866,
        0.0,
        0.0,
        0.0,
        0.0,
        1.0
      ],
      "name": "lampu_blkng"
    },
    {
      "mesh": 24,
      "name": "lampu_blkng_LAMPU ECOLINE_0"
    },
    {
      "children": [
        54
      ],
      "matrix": [
        100.0,
        0.0,
        0.0,
        0.0,
        0.0,
        99.99999999999866,
        1.6292067073209114e-05,
        0.0,
        0.0,
        -1.6292067073209114e-05,
        99.99999999999866,
        0.0,
        0.0,
        0.0,
        0.0,
        1.0
      ],
      "name": "lampu_depan"
    },
    {
      "mesh": 25,
      "name": "lampu_depan_LAMPU ECOLINE_0"
    },
    {
      "children": [
        56
      ],
      "matrix": [
        100.0,
        0.0,
        0.0,
        0.0,
        0.0,
        99.99999999999866,
        1.6292067073209114e-05,
        0.0,
        0.0,
        -1.6292067073209114e-05,
        99.99999999999866,
        0.0,
        0.0,
        0.0,
        0.0,
        1.0
      ],
      "name": "kursi_kernet"
    },
    {
      "mesh": 26,
      "name": "kursi_kernet_inter_0"
    },
    {
      "children": [
        58
      ],
      "matrix": [
        100.0,
        0.0,
        0.0,
        0.0,
        0.0,
        99.99999999999866,
        1.6292067073209114e-05,
        0.0,
        0.0,
        -1.6292067073209114e-05,
        99.99999999999866,
        0.0,
        0.0,
        0.0,
        0.0,
        1.0
      ],
      "name": "slebor"
    },
    {
      "mesh": 27,
      "name": "slebor_hitam_0"
    },
    {
      "children": [
        60
      ],
      "matrix": [
        100.0,
        0.0,
        0.0,
        0.0,
        0.0,
        99.99999999999866,
        1.6292067073209114e-05,
        0.0,
        0.0,
        -1.6292067073209114e-05,
        99.99999999999866,
        0.0,
        0.0,
        0.0,
        0.0,
        1.0
      ],
      "name": "pelek"
    },
    {
      "mesh": 28,
      "name": "pelek_putih_0"
    },
    {
      "children": [
        62
      ],
      "matrix": [
        100.0,
        0.0,
        0.0,
        0.0,
        0.0,
        99.99999999999866,
        1.6292067073209114e-05,
        0.0,
        0.0,
        -1.6292067073209114e-05,
        99.99999999999866,
        0.0,
        0.0,
        0.0,
        0.0,
        1.0
      ],
      "name": "hitam"
    },
    {
      "mesh": 29,
      "name": "hitam_hitam_0"
    },
    {
      "children": [
        64
      ],
      "matrix": [
        100.0,
        0.0,
        0.0,
        0.0,
        0.0,
        99.99999999999866,
        1.6292067073209114e-05,
        0.0,
        0.0,
        -1.6292067073209114e-05,
        99.99999999999866,
        0.0,
        0.0,
        0.0,
        0.0,
        1.0
      ],
      "name": "lantai"
    },
    {
      "mesh": 30,
      "name": "lantai_inter_0"
    },
    {
      "children": [
        66
      ],
      "matrix": [
        100.0,
        0.0,
        0.0,
        0.0,
        0.0,
        99.99999999999866,
        1.6292067073209114e-05,
        0.0,
        0.0,
        -1.6292067073209114e-05,
        99.99999999999866,
        0.0,
        0.0,
        0.0,
        0.0,
        1.0
      ],
      "name": "gorden"
    },
    {
      "mesh": 31,
      "name": "gorden_inter_0"
    },
    {
      "children": [
        68
      ],
      "matrix": [
        100.0,
        0.0,
        0.0,
        0.0,
        0.0,
        99.99999999999866,
        1.6292067073209114e-05,
        0.0,
        0.0,
        -1.6292067073209114e-05,
        99.99999999999866,
        0.0,
        0.0,
        0.0,
        0.0,
        1.0
      ],
      "name": "dasbor"
    },
    {
      "mesh": 32,
      "name": "dasbor_inter_0"
    },
    {
      "children": [
        70
      ],
      "matrix": [
        100.0,
        0.0,
        0.0,
        0.0,
        0.0,
        99.99999999999866,
        1.6292067073209114e-05,
        0.0,
        0.0,
        -1.6292067073209114e-05,
        99.99999999999866,
        0.0,
        0.0,
        0.0,
        0.0,
        1.0
      ],
      "name": "kursi_supir"
    },
    {
      "mesh": 33,
      "name": "kursi_supir_inter_0"
    },
    {
      "children": [
        72
      ],
      "matrix": [
        -29.086475967638382,
        -5.518900835440633,
        -95.51711181433706,
        0.0,
        56.63932306606064,
        79.4672338238497,
        -21.83912445321415,
        0.0,
        77.11007444312405,
        -60.452468005204224,
        -19.9883467444604,
        0.0,
        395.7073974609375,
        185.23019409179688,
        -784.4389038085938,
        1.0
      ],
      "name": "Lamp.001"
    },
    {
      "children": [
        73
      ],
      "matrix": [
        1.0,
        0.0,
        0.0,
        0.0,
        0.0,
        2.220446049250313e-16,
        1.0,
        0.0,
        0.0,
        -1.0,
        2.220446049250313e-16,
        0.0,
        0.0,
        0.0,
        0.0,
        1.0
      ],
      "name": "Object_72"
    },
    {
      "name": "Object_73"
    },
    {
      "children": [
        75
      ],
      "matrix": [
        -29.086475967638382,
        -5.518900835440633,
        -95.51711181433706,
        0.0,
        56.63932306606064,
        79.4672338238497,
        -21.83912445321415,
        0.0,
        77.11007444312405,
        -60.452468005204224,
        -19.9883467444604,
        0.0,
        288.0353088378906,
        357.2787170410156,
        708.6527099609375,
        1.0
      ],
      "name": "Lamp_001"
    },
    {
      "children": [
        76
      ],
      "matrix": [
        1.0,
        0.0,
        0.0,
        0.0,
        0.0,
        2.220446049250313e-16,
        1.0,
        0.0,
        0.0,
        -1.0,
        2.220446049250313e-16,
        0.0,
        0.0,
        0.0,
        0.0,
        1.0
      ],
      "name": "Object_75"
    },
    {
      "name": "Object_76"
    },
    {
      "children": [
        78
      ],
      "matrix": [
        -29.08647719990347,
        -5.518906457566863,
        -95.51711910171437,
        0.0,
        56.63930913109449,
        79.46723428563203,
        -21.83912397841966,
        0.0,
        77.11008775993375,
        -60.45246356562044,
        -19.98834696773717,
        0.0,
        407.6245422363281,
        590.38623046875,
        -100.54539489746094,
        1.0
      ],
      "name": "Lamp"
    },
    {
      "children": [
        79
      ],
      "matrix": [
        1.0,
        0.0,
        0.0,
        0.0,
        0.0,
        2.220446049250313e-16,
        1.0,
        0.0,
        0.0,
        -1.0,
        2.220446049250313e-16,
        0.0,
        0.0,
        0.0,
        0.0,
        1.0
      ],
      "name": "Object_78"
    },
    {
      "name": "Object_79"
    },
    {
      "children": [
        81
      ],
      "matrix": [
        -65.15583280329096,
        -44.52713576570858,
        -61.41703047373549,
        0.0,
        -32.40134137821245,
        89.53957451233616,
        -30.542088974418615,
        0.0,
        68.59205472129975,
        -1.0718647115348782e-05,
        -72.7676336239627,
        0.0,
        748.1131591796875,
        534.3665161132813,
        650.7639770507813,
        1.0
      ],
      "name": "Camera"
    },
    {
      "name": "Object_81"
    }
  ],
  "samplers": [
    {
      "magFilter": 9729,
      "minFilter": 9987,
      "wrapS": 10497,
      "wrapT": 10497
    }
  ],
  "scene": 0,
  "scenes": [
    {
      "name": "Sketchfab_Scene",
      "nodes": [
        0
      ]
    }
  ],
  "textures": [
    {
      "sampler": 0,
      "source": 0
    },
    {
      "sampler": 0,
      "source": 1
    },
    {
      "sampler": 0,
      "source": 2
    }
  ]
}
